<mxfile host="65bd71144e">
    <diagram id="HI-pFxY6XdASCWODzjDD" name="Page-1">
        <mxGraphModel dx="1712" dy="407" grid="1" gridSize="10" guides="1" tooltips="1" connect="1" arrows="1" fold="1" page="1" pageScale="1" pageWidth="850" pageHeight="1100" math="0" shadow="0">
            <root>
                <mxCell id="0"/>
                <mxCell id="1" parent="0"/>
                <mxCell id="63" value="" style="whiteSpace=wrap;html=1;" parent="1" vertex="1">
                    <mxGeometry x="-800" y="260" width="1370" height="680" as="geometry"/>
                </mxCell>
                <mxCell id="59" value="&lt;font style=&quot;font-size: 36px&quot; color=&quot;#f2f2f2&quot;&gt;iPhone 12 Pro&lt;/font&gt;" style="rounded=0;whiteSpace=wrap;html=1;align=center;" parent="1" vertex="1">
                    <mxGeometry x="-800" y="80" width="300" height="70" as="geometry"/>
                </mxCell>
                <mxCell id="61" value="&lt;font style=&quot;font-size: 18px&quot;&gt;Header&lt;/font&gt;" style="whiteSpace=wrap;html=1;" parent="1" vertex="1">
                    <mxGeometry x="-800" y="220" width="170" height="40" as="geometry"/>
                </mxCell>
                <mxCell id="62" value="" style="group" parent="1" vertex="1" connectable="0">
                    <mxGeometry x="-710" y="323" width="1129.995" height="340" as="geometry"/>
                </mxCell>
                <mxCell id="3" style="edgeStyle=orthogonalEdgeStyle;rounded=0;orthogonalLoop=1;jettySize=auto;html=1;exitX=0.25;exitY=0;exitDx=0;exitDy=0;" parent="62" source="2" edge="1">
                    <mxGeometry relative="1" as="geometry">
                        <mxPoint x="380.0588235294117" y="70" as="targetPoint"/>
                    </mxGeometry>
                </mxCell>
                <mxCell id="2" value="" style="whiteSpace=wrap;html=1;" parent="62" vertex="1">
                    <mxGeometry x="180" y="110" width="800" height="230" as="geometry"/>
                </mxCell>
                <mxCell id="4" value="div - header-wrap" style="whiteSpace=wrap;html=1;" parent="62" vertex="1">
                    <mxGeometry x="320" y="10" width="120" height="60" as="geometry"/>
                </mxCell>
                <mxCell id="9" value="" style="whiteSpace=wrap;html=1;" parent="62" vertex="1">
                    <mxGeometry x="190" y="170" width="780" height="50" as="geometry"/>
                </mxCell>
                <mxCell id="5" value="" style="whiteSpace=wrap;html=1;" parent="62" vertex="1">
                    <mxGeometry x="190" y="120" width="780" height="50" as="geometry"/>
                </mxCell>
                <mxCell id="14" value="select - languages" style="whiteSpace=wrap;html=1;" parent="62" vertex="1">
                    <mxGeometry x="708.57" y="10" width="111.43" height="60" as="geometry"/>
                </mxCell>
                <mxCell id="19" value="" style="group" parent="62" vertex="1" connectable="0">
                    <mxGeometry x="220" y="120" width="720" height="50" as="geometry"/>
                </mxCell>
                <mxCell id="6" value="" style="whiteSpace=wrap;html=1;" parent="19" vertex="1">
                    <mxGeometry width="720" height="50" as="geometry"/>
                </mxCell>
                <mxCell id="11" value="&lt;span style=&quot;color: rgb(255 , 255 , 255) ; font-family: &amp;#34;sf pro text&amp;#34; , &amp;#34;myriad set pro&amp;#34; , , , &amp;#34;blinkmacsystemfont&amp;#34; , &amp;#34;segoe ui&amp;#34; , &amp;#34;sf pro icons&amp;#34; , &amp;#34;apple legacy icons&amp;#34; , &amp;#34;helvetica neue&amp;#34; , &amp;#34;helvetica&amp;#34; , &amp;#34;arial&amp;#34; , sans-serif ; text-align: left ; background-color: rgb(68 , 68 , 68)&quot;&gt;Choose another country or region to see content specific to your location.&lt;/span&gt;" style="whiteSpace=wrap;html=1;" parent="19" vertex="1">
                    <mxGeometry x="10" y="10" width="458.57" height="30" as="geometry"/>
                </mxCell>
                <mxCell id="13" value="India" style="whiteSpace=wrap;html=1;" parent="19" vertex="1">
                    <mxGeometry x="478.71" y="10" width="137.14285714285714" height="30" as="geometry"/>
                </mxCell>
                <mxCell id="16" value="Continue" style="whiteSpace=wrap;html=1;" parent="19" vertex="1">
                    <mxGeometry x="626.57" y="10" width="57.14" height="30" as="geometry"/>
                </mxCell>
                <mxCell id="22" value="X" style="whiteSpace=wrap;html=1;" parent="19" vertex="1">
                    <mxGeometry x="691.57" y="10" width="21.43" height="30" as="geometry"/>
                </mxCell>
                <mxCell id="15" value="" style="edgeStyle=orthogonalEdgeStyle;rounded=0;orthogonalLoop=1;jettySize=auto;html=1;" parent="62" source="13" target="14" edge="1">
                    <mxGeometry relative="1" as="geometry"/>
                </mxCell>
                <mxCell id="20" value="button - continue" style="whiteSpace=wrap;html=1;" parent="62" vertex="1">
                    <mxGeometry x="828.57" y="10" width="97.14" height="55" as="geometry"/>
                </mxCell>
                <mxCell id="21" value="" style="edgeStyle=orthogonalEdgeStyle;rounded=0;orthogonalLoop=1;jettySize=auto;html=1;" parent="62" source="16" target="20" edge="1">
                    <mxGeometry relative="1" as="geometry"/>
                </mxCell>
                <mxCell id="23" value="button - close" style="whiteSpace=wrap;html=1;" parent="62" vertex="1">
                    <mxGeometry x="1009.995" y="115" width="120" height="60" as="geometry"/>
                </mxCell>
                <mxCell id="24" value="" style="edgeStyle=orthogonalEdgeStyle;rounded=0;orthogonalLoop=1;jettySize=auto;html=1;" parent="62" source="22" target="23" edge="1">
                    <mxGeometry relative="1" as="geometry"/>
                </mxCell>
                <mxCell id="25" value="logo" style="whiteSpace=wrap;html=1;" parent="62" vertex="1">
                    <mxGeometry x="220" y="180" width="31.43" height="30" as="geometry"/>
                </mxCell>
                <mxCell id="26" value="&lt;div&gt;&lt;span style=&quot;white-space: pre&quot;&gt;&#9;&lt;/span&gt;&lt;span&gt;a -&lt;/span&gt;&lt;br&gt;&lt;/div&gt;&lt;div&gt;&lt;span&gt;&lt;span style=&quot;white-space: pre&quot;&gt;&#9;&lt;span style=&quot;white-space: pre&quot;&gt;&#9;&lt;/span&gt;s&lt;/span&gt;vg&amp;nbsp;- apple-logo&lt;/span&gt;&lt;/div&gt;" style="whiteSpace=wrap;html=1;align=left;" parent="62" vertex="1">
                    <mxGeometry x="-50" y="77" width="167.86" height="60" as="geometry"/>
                </mxCell>
                <mxCell id="27" value="" style="edgeStyle=orthogonalEdgeStyle;rounded=0;orthogonalLoop=1;jettySize=auto;html=1;" parent="62" source="25" target="26" edge="1">
                    <mxGeometry relative="1" as="geometry">
                        <Array as="points">
                            <mxPoint x="90" y="187"/>
                        </Array>
                    </mxGeometry>
                </mxCell>
                <mxCell id="28" value="Store" style="whiteSpace=wrap;html=1;" parent="62" vertex="1">
                    <mxGeometry x="280" y="180" width="31.43" height="30" as="geometry"/>
                </mxCell>
                <mxCell id="29" value="Mac" style="whiteSpace=wrap;html=1;" parent="62" vertex="1">
                    <mxGeometry x="340" y="180" width="31.43" height="30" as="geometry"/>
                </mxCell>
                <mxCell id="30" value="iPad" style="whiteSpace=wrap;html=1;" parent="62" vertex="1">
                    <mxGeometry x="408.57" y="175" width="31.43" height="30" as="geometry"/>
                </mxCell>
                <mxCell id="31" value="iPhone" style="whiteSpace=wrap;html=1;" parent="62" vertex="1">
                    <mxGeometry x="470" y="180" width="45.72" height="30" as="geometry"/>
                </mxCell>
                <mxCell id="32" value="Watch" style="whiteSpace=wrap;html=1;" parent="62" vertex="1">
                    <mxGeometry x="540" y="180" width="45.72" height="30" as="geometry"/>
                </mxCell>
                <mxCell id="33" value="TV" style="whiteSpace=wrap;html=1;" parent="62" vertex="1">
                    <mxGeometry x="610" y="180" width="45.72" height="30" as="geometry"/>
                </mxCell>
                <mxCell id="34" value="Music" style="whiteSpace=wrap;html=1;" parent="62" vertex="1">
                    <mxGeometry x="680" y="180" width="45.72" height="30" as="geometry"/>
                </mxCell>
                <mxCell id="35" value="Support" style="whiteSpace=wrap;html=1;" parent="62" vertex="1">
                    <mxGeometry x="750" y="180" width="45.72" height="30" as="geometry"/>
                </mxCell>
                <mxCell id="41" value="" style="whiteSpace=wrap;html=1;" parent="62" vertex="1">
                    <mxGeometry x="890" y="181" width="40" height="30" as="geometry"/>
                </mxCell>
                <mxCell id="45" value="" style="group" parent="62" vertex="1" connectable="0">
                    <mxGeometry x="904.2800000000001" y="189.75" width="11.43" height="12.5" as="geometry"/>
                </mxCell>
                <mxCell id="47" value="" style="group" parent="45" vertex="1" connectable="0">
                    <mxGeometry width="11.43" height="12.5" as="geometry"/>
                </mxCell>
                <mxCell id="44" value="" style="rounded=1;whiteSpace=wrap;html=1;arcSize=50;" parent="47" vertex="1">
                    <mxGeometry x="2.8599999999999" width="5.72" height="10" as="geometry"/>
                </mxCell>
                <mxCell id="43" value="" style="rounded=1;whiteSpace=wrap;html=1;" parent="47" vertex="1">
                    <mxGeometry y="2.5" width="11.43" height="10" as="geometry"/>
                </mxCell>
                <mxCell id="36" value="" style="whiteSpace=wrap;html=1;" parent="62" vertex="1">
                    <mxGeometry x="820" y="180" width="40" height="30" as="geometry"/>
                </mxCell>
                <mxCell id="37" value="" style="group" parent="62" vertex="1" connectable="0">
                    <mxGeometry x="830" y="185" width="20" height="25" as="geometry"/>
                </mxCell>
                <mxCell id="38" value="" style="line;strokeWidth=2;html=1;fillColor=#FFFFFF;rotation=45;direction=west;" parent="37" vertex="1">
                    <mxGeometry x="3.6305326162188125" y="10.0331393079274" width="16.17039227263859" height="9.121035734479454" as="geometry"/>
                </mxCell>
                <mxCell id="39" value="" style="ellipse;shape=doubleEllipse;whiteSpace=wrap;html=1;aspect=fixed;strokeColor=none;fillColor=#FFFFFF;" parent="37" vertex="1">
                    <mxGeometry width="14.52213046487525" height="14.52213046487525" as="geometry"/>
                </mxCell>
                <mxCell id="50" value="a - Store" style="whiteSpace=wrap;html=1;" parent="62" vertex="1">
                    <mxGeometry x="-60.004999999999995" y="183.75" width="120" height="60" as="geometry"/>
                </mxCell>
                <mxCell id="51" value="" style="edgeStyle=orthogonalEdgeStyle;rounded=0;orthogonalLoop=1;jettySize=auto;html=1;" parent="62" source="28" target="50" edge="1">
                    <mxGeometry relative="1" as="geometry">
                        <Array as="points">
                            <mxPoint x="296" y="214"/>
                        </Array>
                    </mxGeometry>
                </mxCell>
                <mxCell id="57" style="edgeStyle=orthogonalEdgeStyle;rounded=0;orthogonalLoop=1;jettySize=auto;html=1;exitX=0.25;exitY=0;exitDx=0;exitDy=0;" parent="62" source="11" edge="1">
                    <mxGeometry relative="1" as="geometry">
                        <mxPoint x="170" y="50" as="targetPoint"/>
                    </mxGeometry>
                </mxCell>
                <mxCell id="58" value="span" style="whiteSpace=wrap;html=1;" parent="62" vertex="1">
                    <mxGeometry x="115.71000000000004" width="120" height="50" as="geometry"/>
                </mxCell>
                <mxCell id="64" value="" style="whiteSpace=wrap;html=1;" vertex="1" parent="62">
                    <mxGeometry x="190" y="220" width="780" height="50" as="geometry"/>
                </mxCell>
                <mxCell id="65" value="" style="whiteSpace=wrap;html=1;" vertex="1" parent="62">
                    <mxGeometry x="190" y="270" width="780" height="30" as="geometry"/>
                </mxCell>
                <mxCell id="66" value="&lt;font color=&quot;#fcfcfc&quot;&gt;&lt;span style=&quot;font-family: &amp;#34;sf pro text&amp;#34; , &amp;#34;sf pro icons&amp;#34; , &amp;#34;helvetica neue&amp;#34; , &amp;#34;helvetica&amp;#34; , &amp;#34;arial&amp;#34; , sans-serif ; letter-spacing: -0.12px&quot;&gt;Save on the newest iPhone with the latest carrier deals. Directly from Apple.&amp;nbsp;&lt;/span&gt;&lt;a class=&quot;ribbon-link more&quot; href=&quot;https://www.apple.com/us/shop/goto/buy_iphone/carrier_offers&quot; style=&quot;letter-spacing: -0.12px ; animation: 1s cubic-bezier(0.42 , 0 , 0.58 , 1) 1.8s 1 normal forwards running ; font-family: &amp;#34;sf pro text&amp;#34; , &amp;#34;sf pro icons&amp;#34; , &amp;#34;helvetica neue&amp;#34; , &amp;#34;helvetica&amp;#34; , &amp;#34;arial&amp;#34; , sans-serif&quot;&gt;Find your offer&lt;/a&gt;&lt;span style=&quot;font-family: &amp;#34;sf pro text&amp;#34; , &amp;#34;sf pro icons&amp;#34; , &amp;#34;helvetica neue&amp;#34; , &amp;#34;helvetica&amp;#34; , &amp;#34;arial&amp;#34; , sans-serif ; letter-spacing: -0.12px&quot;&gt;&amp;nbsp;&lt;/span&gt;&lt;/font&gt;" style="whiteSpace=wrap;html=1;" vertex="1" parent="62">
                    <mxGeometry x="290" y="270" width="550" height="30" as="geometry"/>
                </mxCell>
                <mxCell id="68" value="" style="whiteSpace=wrap;html=1;" vertex="1" parent="62">
                    <mxGeometry x="720" y="231" width="240" height="27" as="geometry"/>
                </mxCell>
                <mxCell id="71" value="Tech Specs" style="whiteSpace=wrap;html=1;" vertex="1" parent="62">
                    <mxGeometry x="810" y="231.5" width="80" height="27" as="geometry"/>
                </mxCell>
                <mxCell id="70" value="Overview" style="whiteSpace=wrap;html=1;" vertex="1" parent="62">
                    <mxGeometry x="720" y="231.5" width="69.29" height="27" as="geometry"/>
                </mxCell>
                <mxCell id="52" value="&lt;div style=&quot;text-align: left&quot;&gt;&lt;span&gt;a&lt;/span&gt;&lt;/div&gt;&lt;span style=&quot;white-space: pre&quot;&gt;&lt;div style=&quot;text-align: left&quot;&gt;&lt;span&gt;&#9;&lt;/span&gt;&lt;span style=&quot;white-space: normal&quot;&gt;svg - search-icon/shop icon&lt;/span&gt;&lt;/div&gt;&lt;/span&gt;" style="whiteSpace=wrap;html=1;" parent="1" vertex="1">
                    <mxGeometry x="299.99" y="528" width="220" height="70" as="geometry"/>
                </mxCell>
                <mxCell id="80" style="edgeStyle=orthogonalEdgeStyle;rounded=0;orthogonalLoop=1;jettySize=auto;html=1;exitX=0;exitY=0.75;exitDx=0;exitDy=0;entryX=1;entryY=0.5;entryDx=0;entryDy=0;" edge="1" parent="1" source="67" target="77">
                    <mxGeometry relative="1" as="geometry"/>
                </mxCell>
                <mxCell id="67" value="iPhone 12 Pro" style="whiteSpace=wrap;html=1;" vertex="1" parent="1">
                    <mxGeometry x="-490" y="554" width="90" height="27" as="geometry"/>
                </mxCell>
                <mxCell id="69" value="Buy" style="whiteSpace=wrap;html=1;" vertex="1" parent="1">
                    <mxGeometry x="200" y="554" width="50" height="27" as="geometry"/>
                </mxCell>
                <mxCell id="72" value="div - CTA Wrap" style="whiteSpace=wrap;html=1;" vertex="1" parent="1">
                    <mxGeometry x="-770" y="581" width="120" height="60" as="geometry"/>
                </mxCell>
                <mxCell id="73" value="" style="edgeStyle=orthogonalEdgeStyle;rounded=0;orthogonalLoop=1;jettySize=auto;html=1;" edge="1" parent="1" source="64" target="72">
                    <mxGeometry relative="1" as="geometry"/>
                </mxCell>
                <mxCell id="77" value="div - prod-name" style="whiteSpace=wrap;html=1;" vertex="1" parent="1">
                    <mxGeometry x="-770" y="650" width="120" height="60" as="geometry"/>
                </mxCell>
                <mxCell id="81" style="edgeStyle=orthogonalEdgeStyle;rounded=0;orthogonalLoop=1;jettySize=auto;html=1;entryX=0;entryY=0;entryDx=0;entryDy=0;" edge="1" parent="1" source="36" target="52">
                    <mxGeometry relative="1" as="geometry">
                        <Array as="points">
                            <mxPoint x="300" y="508"/>
                        </Array>
                    </mxGeometry>
                </mxCell>
                <mxCell id="83" style="edgeStyle=orthogonalEdgeStyle;rounded=0;orthogonalLoop=1;jettySize=auto;html=1;" edge="1" parent="1" source="41">
                    <mxGeometry relative="1" as="geometry">
                        <mxPoint x="300" y="530" as="targetPoint"/>
                        <Array as="points">
                            <mxPoint x="240" y="530"/>
                            <mxPoint x="240" y="530"/>
                        </Array>
                    </mxGeometry>
                </mxCell>
                <mxCell id="84" value="&lt;div&gt;&lt;span&gt;div - offer-wrap&lt;/span&gt;&lt;/div&gt;&lt;span style=&quot;white-space: pre&quot;&gt;&lt;span style=&quot;white-space: pre&quot;&gt;&#9;&lt;/span&gt;div - offer&lt;br&gt;&lt;span style=&quot;white-space: pre&quot;&gt;&#9;&lt;/span&gt;&lt;span style=&quot;white-space: pre&quot;&gt;&#9;&lt;/span&gt;span - Save on the ...&lt;br&gt;&lt;span style=&quot;white-space: pre&quot;&gt;&#9;&lt;/span&gt;&lt;span style=&quot;white-space: pre&quot;&gt;&#9;&lt;/span&gt;a - find your offer&lt;br&gt;&lt;/span&gt;" style="whiteSpace=wrap;html=1;align=left;" vertex="1" parent="1">
                    <mxGeometry x="-247.5" y="688" width="205" height="60" as="geometry"/>
                </mxCell>
                <mxCell id="85" value="" style="edgeStyle=orthogonalEdgeStyle;rounded=0;orthogonalLoop=1;jettySize=auto;html=1;" edge="1" parent="1" source="66" target="84">
                    <mxGeometry relative="1" as="geometry"/>
                </mxCell>
                <mxCell id="7" value="&lt;div&gt;&lt;span&gt;aside - language-bar-wrap&lt;/span&gt;&lt;/div&gt;&lt;div&gt;&lt;span&gt;&lt;br&gt;&lt;/span&gt;&lt;/div&gt;&lt;div&gt;&lt;span style=&quot;white-space: pre&quot;&gt;&#9;&lt;/span&gt;div - language-bar&lt;br&gt;&lt;/div&gt;&lt;div&gt;&lt;span&gt;&lt;span style=&quot;white-space: pre&quot;&gt;&#9;&lt;/span&gt;margin: 0 auto&lt;/span&gt;&lt;/div&gt;&lt;div&gt;&lt;span&gt;&lt;span style=&quot;white-space: pre&quot;&gt;&#9;&lt;/span&gt;padding: 17px&lt;br&gt;&lt;/span&gt;&lt;/div&gt;&lt;div&gt;&lt;span&gt;&lt;span style=&quot;white-space: pre&quot;&gt;&#9;&lt;/span&gt;&lt;span style=&quot;white-space: pre&quot;&gt;&#9;&lt;/span&gt;&lt;br&gt;&lt;/span&gt;&lt;/div&gt;&lt;div&gt;&lt;span style=&quot;white-space: pre&quot;&gt;&#9;&lt;/span&gt;&lt;span style=&quot;white-space: pre&quot;&gt;&#9;&lt;/span&gt;div - lang-input-wrap&lt;br&gt;&lt;/div&gt;&lt;div&gt;&lt;span style=&quot;white-space: pre&quot;&gt;&#9;&lt;span style=&quot;white-space: pre&quot;&gt;&#9;&lt;/span&gt;&lt;/span&gt;flex: 1&lt;/div&gt;" style="whiteSpace=wrap;html=1;align=left;" parent="1" vertex="1">
                    <mxGeometry x="-230" y="270" width="200" height="130" as="geometry"/>
                </mxCell>
                <mxCell id="8" value="" style="edgeStyle=orthogonalEdgeStyle;rounded=0;orthogonalLoop=1;jettySize=auto;html=1;" parent="1" source="5" target="7" edge="1">
                    <mxGeometry relative="1" as="geometry"/>
                </mxCell>
            </root>
        </mxGraphModel>
    </diagram>
</mxfile>